# xmcd
#
# Track frame offsets:
#	150
#	12131
#	27101
#	44373
#	66018
#	81208
#	100483
#	117908
#	135178
#	154736
#	170448
#	185738
#	202713
#	218341
#	232480
#	249476
#
# Disc length: 3515 seconds
#
# Revision: 1
# Processed by: cddbd v1.4PL0 Copyright (c) Steve Scherf et al.
# Submitted via: audiograbber 1.80.04
#
DISCID=ce0db910
DTITLE=Kenny Rogers - Love Songs
DYEAR=1998
DGENRE=
TTITLE0=Always
TTITLE1=Crazy
TTITLE2=Endless Love
TTITLE3=Have I told You Lately That I Love You
TTITLE4=I Can't Help Falling in Love
TTITLE5=I Only Have Eyes For You
TTITLE6=I Swear
TTITLE7=Lady
TTITLE8=She Believes in Me
TTITLE9=Through the Years
TTITLE10=Unforgettable
TTITLE11=When a Man Loves a Woman
TTITLE12=When I Fall in Love
TTITLE13=You Are So Beautiful
TTITLE14=You Decorate My Life
TTITLE15=You Light Up My Life
EXTD=
EXTT0=
EXTT1=
EXTT2=
EXTT3=
EXTT4=
EXTT5=
EXTT6=
EXTT7=
EXTT8=
EXTT9=
EXTT10=
EXTT11=
EXTT12=
EXTT13=
EXTT14=
EXTT15=
PLAYORDER=
